<svg width="193" height="192" viewBox="0 0 193 192" fill="none" xmlns="http://www.w3.org/2000/svg">
<path d="M126 0C89.52 0 60 10.56 60 24V48C24 49.2 0 59.28 0 72V144C0 157.08 29.52 168 66 168H66.804C75.588 167.992 84.2 167.352 92.64 166.08C101.016 181.74 117.768 191.976 136.92 191.976C148.43 191.979 159.623 188.204 168.78 181.23C177.937 174.256 184.552 164.469 187.608 153.372C190.116 150.984 191.736 148.068 192.012 144.768V24C192.012 10.56 162.492 0 126.012 0H126ZM66 60C96 60 120 65.4 120 72C120 78.6 96 84 66 84C36 84 12 78.6 12 72C12 65.4 36 60 66 60ZM66 156C33.48 156 15 147.48 12 144V134.4C29.1477 141.599 47.6875 144.875 66.264 143.988C72.36 143.976 78.624 143.628 84.792 142.968C84.276 147.42 85.056 151.512 86.268 155.412C80.844 155.664 74.664 156.024 68.412 156.024L65.88 156H66ZM84.84 130.92C79.236 131.604 72.744 132 66.168 132H66C33.492 132 15.012 123.48 12.012 120V109.92C29.1063 117.281 47.6305 120.725 66.228 120C73.8414 119.987 81.4458 119.473 88.992 118.464C86.628 122.136 85.5 126.312 84.888 130.644L84.84 130.92ZM66 108C33.48 108 15 99.48 12 96V85.2C29.0943 92.5606 47.6185 96.0047 66.216 95.28C84.9651 95.905 103.619 92.3554 120.828 84.888L120.012 89.28C111.005 92.3112 102.983 97.7174 96.792 104.928C87.768 106.908 77.46 108 66.9 108H65.976H66ZM136.92 180C126.067 180 115.659 175.689 107.985 168.015C100.311 160.341 96 149.933 96 139.08C96 128.227 100.311 117.819 107.985 110.145C115.659 102.471 126.067 98.16 136.92 98.16C147.773 98.16 158.181 102.471 165.855 110.145C173.529 117.819 177.84 128.227 177.84 139.08C177.84 149.933 173.529 160.341 165.855 168.015C158.181 175.689 147.773 180 136.92 180ZM180 96C177.9 98.004 175.38 99.6 172.596 100.632C169.14 97.704 165.396 95.112 161.34 93.024C167.966 91.3091 174.379 88.8536 180.456 85.704L180 96ZM180 72C177.12 75.72 160.68 83.28 132 84V72H132.132C148.882 72.012 165.45 68.517 180.768 61.74L180 72ZM180 48C177 51.96 158.52 60 126 60H123.24C107.758 52.0728 90.6057 47.9586 73.212 48H72V37.2C89.0943 44.5606 107.618 48.0047 126.216 47.28C144.965 47.905 163.619 44.3554 180.828 36.888L180 48ZM126 36C96 36 72 30.6 72 24C72 17.4 96 12 126 12C156 12 180 17.4 180 24C180 30.6 156 36 126 36Z" fill="#BDAE56"/>
<path d="M119.478 133.827L105.756 154.287C105.356 154.943 105.769 155.797 106.527 155.881L133.601 158.777L119.478 133.827ZM106.563 147L116.351 130.942L106.388 124.907C106.041 124.697 105.6 124.949 105.6 125.357V146.726C105.6 147.255 106.288 147.452 106.563 147ZM107.972 161.198L133.244 172.703C133.933 173.024 134.72 172.515 134.72 171.75V163.131L108.258 160.204C107.68 160.138 107.449 160.938 107.972 161.198ZM118.531 127.364L128.922 108.603C129.486 107.676 128.455 106.601 127.521 107.141L107.915 120.083C107.594 120.296 107.605 120.774 107.932 120.973L118.531 127.364ZM150.997 128.7L138.572 106.6C138.165 105.933 137.483 105.6 136.8 105.6C136.118 105.6 135.435 105.933 135.028 106.6L122.603 128.7H150.997ZM167.212 124.907L157.249 130.943L167.037 147.001C167.311 147.453 168 147.256 168 146.726V125.357C168 124.949 167.559 124.697 167.212 124.907ZM155.069 127.364L165.668 120.972C165.997 120.773 166.006 120.295 165.685 120.082L146.079 107.141C145.145 106.601 144.114 107.676 144.678 108.603L155.069 127.364ZM165.341 160.204L138.88 163.13V171.749C138.88 172.515 139.666 173.023 140.355 172.702L165.628 161.196C166.151 160.938 165.92 160.138 165.341 160.204ZM154.122 133.827L140.001 158.777L167.074 155.881C167.832 155.795 168.246 154.943 167.845 154.287L154.122 133.827ZM123.744 132.9L136.8 155.967L149.856 132.9H123.744Z" fill="url(#paint0_linear_1_65)"/>
<path d="M40.4696 70.0138L20.4043 76.0252C19.8182 76.2198 20.4086 76.513 21.5051 76.5729L60.6789 78.6783L40.4696 70.0138ZM21.6434 73.7079L35.9703 68.9474L21.6022 66.5687C21.1017 66.4859 20.4611 66.5482 20.4572 66.6799L20.2513 73.5777C20.2462 73.7485 21.24 73.8417 21.6434 73.7079ZM23.5471 78.3517L60.0289 83.1581C61.0234 83.2917 62.1672 83.1613 62.1745 82.9143L62.2576 80.132L23.9708 78.0433C23.1338 77.9971 22.791 78.2451 23.5471 78.3517ZM39.1615 67.8867L54.3879 62.28C55.2137 62.0053 53.7314 61.6137 52.3728 61.7475L23.8605 65.0777C23.3935 65.1325 23.404 65.2871 23.8764 65.3657L39.1615 67.8867ZM86.1582 69.7216L68.3798 62.0507C67.7971 61.8178 66.812 61.6807 65.8238 61.6512C64.8356 61.6217 63.8441 61.6998 63.2485 61.8975L45.0441 68.4941L86.1582 69.7216ZM109.673 69.1981L95.1888 70.7159L109.206 76.3226C109.599 76.4802 110.599 76.4465 110.604 76.2753L110.81 69.3775C110.814 69.2457 110.178 69.1454 109.673 69.1981ZM92.0666 69.4663L107.475 67.8612C107.953 67.811 107.971 67.6572 107.508 67.5747L79.2451 62.5498C77.8969 62.3352 76.3938 62.6376 77.2019 62.9611L92.0666 69.4663ZM106.624 80.511L68.2811 80.3115L68.198 83.0937C68.1907 83.3411 69.3246 83.5391 70.3253 83.4651L107.029 80.8437C107.79 80.7829 107.463 80.5149 106.624 80.511ZM90.634 71.5115L69.9456 78.955L109.175 79.1904C110.273 79.1956 110.88 78.9385 110.307 78.7094L90.634 71.5115ZM46.6564 69.8992L65.3384 77.9096L84.4651 71.028L46.6564 69.8992Z" fill="url(#paint1_linear_1_65)"/>
<path d="M104.371 21.8705L86.3047 26.7929C85.7771 26.9523 86.3097 27.196 87.2979 27.2479L122.6 29.0751L104.371 21.8705ZM87.4161 24.8809L100.315 20.9793L87.363 18.9816C86.9118 18.9121 86.3348 18.9621 86.3316 19.071L86.1614 24.7702C86.1572 24.9112 87.0529 24.9905 87.4161 24.8809ZM89.1417 28.7223L122.024 32.7753C122.92 32.8879 123.951 32.7827 123.957 32.5786L124.025 30.2798L89.5228 28.4684C88.7685 28.4284 88.4602 28.6325 89.1417 28.7223ZM103.188 20.1099L116.895 15.5111C117.638 15.2859 116.302 14.9591 115.078 15.0666L89.3945 17.7547C88.9738 17.7989 88.9836 17.9267 89.4094 17.9927L103.188 20.1099ZM145.538 21.731L129.501 15.3528C128.976 15.1592 128.088 15.0437 127.197 15.0171C126.307 14.9905 125.414 15.0528 124.878 15.2148L108.489 20.6249L145.538 21.731ZM166.724 21.351L153.677 22.5728L166.319 27.237C166.674 27.3681 167.574 27.3424 167.579 27.201L167.749 21.5018C167.752 21.3929 167.179 21.3085 166.724 21.351ZM150.861 21.5333L164.741 20.2414C165.171 20.201 165.187 20.074 164.77 20.0047L139.293 15.7895C138.077 15.6092 136.724 15.8558 137.452 16.1249L150.861 21.5333ZM164.003 30.6921L129.453 30.4415L129.385 32.7403C129.379 32.9447 130.401 33.1109 131.302 33.0519L164.368 30.9679C165.053 30.9193 164.758 30.6971 164.003 30.6921ZM149.574 23.2201L130.95 29.3244L166.298 29.6065C167.288 29.6133 167.834 29.4022 167.316 29.2116L149.574 23.2201ZM109.945 21.7895L126.796 28.4503L144.015 22.8067L109.945 21.7895Z" fill="url(#paint2_linear_1_65)"/>
<defs>
<linearGradient id="paint0_linear_1_65" x1="0" y1="0" x2="191.976" y2="192.012" gradientUnits="userSpaceOnUse">
<stop stop-color="#6F909F"/>
<stop offset="0.5" stop-color="#435B65"/>
<stop offset="1" stop-color="#2F3F46"/>
</linearGradient>
<linearGradient id="paint1_linear_1_65" x1="0" y1="0" x2="191.976" y2="192.012" gradientUnits="userSpaceOnUse">
<stop stop-color="#6F909F"/>
<stop offset="0.5" stop-color="#435B65"/>
<stop offset="1" stop-color="#2F3F46"/>
</linearGradient>
<linearGradient id="paint2_linear_1_65" x1="0" y1="0" x2="191.976" y2="192.012" gradientUnits="userSpaceOnUse">
<stop stop-color="#6F909F"/>
<stop offset="0.5" stop-color="#435B65"/>
<stop offset="1" stop-color="#2F3F46"/>
</linearGradient>
</defs>
</svg>
